<svg data-v-0dd9719b="" version="1.0" xmlns="http://www.w3.org/2000/svg" xmlns:xlink="http://www.w3.org/1999/xlink" width="100%" height="100%" viewBox="0 0 340.000000 250.000000" preserveAspectRatio="xMidYMid meet" color-interpolation-filters="sRGB" style="margin: auto;"> <rect data-v-0dd9719b="" x="0" y="0" width="100%" height="100%" fill="#fff" fill-opacity="1" class="background"></rect> <rect data-v-0dd9719b="" x="0" y="0" width="100%" height="100%" fill="url(#watermark)" fill-opacity="1" class="watermarklayer"></rect> <g data-v-0dd9719b="" fill="#333" class="icon-text-wrapper icon-svg-group iconsvg" transform="translate(46.83000183105469,95)"><g class="iconsvg-imagesvg" transform="translate(0,0)"><g><rect fill="#333" fill-opacity="0" stroke-width="2" x="0" y="0" width="60" height="60" class="image-rect"></rect> <svg x="0" y="0" width="60" height="60" filtersec="colorsb8296549231" class="image-svg-svg primary" style="overflow: visible;"><svg xmlns="http://www.w3.org/2000/svg" viewBox="0 0 55.34000015258789 55.339996337890625"><g fill-rule="evenodd"><path fill="gray" d="M38.2 44.82L27.67 55.34 17.14 44.82 27.7 17.38l10.5 27.44z"></path><path fill="#00ba2d" d="M25.96 12.64L14.05 41.72 0 27.67 27.67 0l27.67 27.67L41.3 41.72 29.43 12.64h-3.47z"></path></g></svg></svg> <!----></g></g> <g transform="translate(67,15.380000114440918)"><g data-gra="path-name" fill-rule="" class="tp-name iconsvg-namesvg"><g transform="scale(1)"><g><path d="M20.9-28.2L20.9-28.2 19.77-19.73Q19.19-19.89 18.61-19.95 18.03-20.01 17.45-20.01L17.45-20.01Q15.96-20.01 14.62-19.62 13.28-19.23 12.24-18.43 11.21-17.63 10.6-16.42 9.99-15.22 9.99-13.6L9.99-13.6Q9.99-12.55 10.32-11.79 10.65-11.03 11.25-10.53 11.85-10.03 12.67-9.79 13.5-9.55 14.48-9.55L14.48-9.55Q15.22-9.55 16.02-9.71 16.82-9.87 17.61-10.13 18.39-10.39 19.13-10.73 19.87-11.07 20.49-11.43L20.49-11.43 19.69-2.01Q18.91-1.6 18-1.29 17.09-0.98 16.12-0.75 15.16-0.52 14.2-0.4 13.24-0.28 12.35-0.28L12.35-0.28Q9.81-0.28 7.6-1.22 5.39-2.17 3.77-3.81 2.15-5.45 1.21-7.69 0.28-9.93 0.28-12.51L0.28-12.51Q0.28-15.94 1.26-18.98 2.25-22.02 4.15-24.3 6.06-26.59 8.87-27.91 11.69-29.24 15.36-29.24L15.36-29.24Q16.74-29.24 18.2-29.02 19.65-28.8 20.9-28.2ZM22.66-28.92L41.15-28.92Q41.03-27.03 40.93-25.19 40.83-23.34 40.67-21.46L40.67-21.46 32.17-21.02 31.97-18.49 37.94-18.49 37.5-12.27 31.48-12.07 31.28-9.14 36.26-9.14 39.79-9.14Q39.67-6.94 39.54-4.76 39.41-2.59 39.3-0.4L39.3-0.4 22.02 0 22.66-28.92ZM59.64-28.44L69.1-28.76 67.66-1.56 57.15-0.6 51.54-15.16 50.66-0.32 41.63-0.32 42.35-28.76 52.38-29.24 59.32-14.8 59.64-28.44ZM70.07-28.64L91.93-28.68 91.72-20.17 85.75-19.93 84.22-0.92 75.76-0.48 75.8-19.49 69.83-19.17 70.07-28.64ZM93.19-27.67L103.86-28.24 101.65-0.92 93.19-0.48 93.19-27.67ZM123.05-28.44L132.51-28.76 131.07-1.56 120.56-0.6 114.95-15.16 114.06-0.32 105.04-0.32 105.76-28.76 115.79-29.24 122.73-14.8 123.05-28.44ZM153.81-28.2L153.81-28.2 152.69-19.73Q152.11-19.89 151.52-19.95 150.94-20.01 150.36-20.01L150.36-20.01Q148.88-20.01 147.53-19.62 146.19-19.23 145.16-18.43 144.12-17.63 143.51-16.42 142.9-15.22 142.9-13.6L142.9-13.6Q142.9-12.55 143.23-11.79 143.56-11.03 144.16-10.53 144.77-10.03 145.59-9.79 146.41-9.55 147.39-9.55L147.39-9.55Q148.14-9.55 148.94-9.71 149.74-9.87 150.52-10.13 151.3-10.39 152.05-10.73 152.79-11.07 153.41-11.43L153.41-11.43 152.61-2.01Q151.82-1.6 150.91-1.29 150-0.98 149.04-0.75 148.07-0.52 147.11-0.4 146.15-0.28 145.27-0.28L145.27-0.28Q142.72-0.28 140.51-1.22 138.31-2.17 136.68-3.81 135.06-5.45 134.13-7.69 133.2-9.93 133.2-12.51L133.2-12.51Q133.2-15.94 134.18-18.98 135.16-22.02 137.07-24.3 138.97-26.59 141.79-27.91 144.61-29.24 148.28-29.24L148.28-29.24Q149.66-29.24 151.11-29.02 152.57-28.8 153.81-28.2ZM179.62-14.16L179.62-14.16Q179.62-12.33 179.2-10.64 178.78-8.94 177.98-7.46 177.19-5.98 176.06-4.74 174.93-3.51 173.51-2.63 172.1-1.74 170.43-1.25 168.77-0.76 166.91-0.76L166.91-0.76Q165.1-0.76 163.47-1.22 161.83-1.68 160.41-2.52 158.98-3.35 157.83-4.52 156.68-5.7 155.87-7.13 155.05-8.56 154.6-10.21 154.15-11.85 154.15-13.64L154.15-13.64Q154.15-15.38 154.57-17.06 154.99-18.73 155.79-20.21 156.58-21.7 157.7-22.94 158.82-24.18 160.22-25.09 161.61-25.99 163.24-26.49 164.86-26.99 166.66-26.99L166.66-26.99Q169.57-26.99 171.97-26.09 174.36-25.19 176.06-23.51 177.75-21.84 178.69-19.46 179.62-17.09 179.62-14.16ZM170.72-13.64L170.72-13.64Q170.72-14.5 170.46-15.31 170.21-16.12 169.73-16.75 169.25-17.39 168.54-17.78 167.83-18.17 166.91-18.17L166.91-18.17Q165.96-18.17 165.22-17.83 164.48-17.49 163.95-16.9 163.42-16.3 163.14-15.51 162.85-14.72 162.85-13.84L162.85-13.84Q162.85-12.99 163.09-12.15 163.34-11.31 163.82-10.63 164.3-9.95 165.01-9.53 165.72-9.1 166.66-9.1L166.66-9.1Q167.61-9.1 168.36-9.48 169.11-9.85 169.63-10.48 170.15-11.11 170.43-11.93 170.72-12.75 170.72-13.64Z" transform="translate(-0.2800000011920929, 29.239999771118164)"></path></g> <!----> <!----> <!----> <!----> <!----> <!----> <!----></g></g> <!----></g></g><defs v-gra="od"></defs></svg>